<?xml version="1.0" encoding="utf-8"?>
<!-- Generator: Adobe Illustrator 23.0.1, SVG Export Plug-In . SVG Version: 6.00 Build 0)  -->
<svg version="1.1" id="Layer_1" xmlns="http://www.w3.org/2000/svg" xmlns:xlink="http://www.w3.org/1999/xlink" x="0px" y="0px"
	 viewBox="0 0 1174 322" style="enable-background:new 0 0 1174 322;" xml:space="preserve">
<style type="text/css">
	.st0{fill:url(#SVGID_1_);}
	.st1{fill:#EB2D2E;}
	.st2{fill:#37338E;}
</style>
<g>
	<g>
		<g>
			
				<radialGradient id="SVGID_1_" cx="257.588" cy="231.4095" r="21.9625" gradientTransform="matrix(2.0079 0 0 1.8001 -477.6598 -318.016)" gradientUnits="userSpaceOnUse">
				<stop  offset="0" style="stop-color:#F8F1B7"/>
				<stop  offset="1" style="stop-color:#EB2D2E"/>
			</radialGradient>
			<path class="st0" d="M28.78,110.38c0,0-20.2-18.09-1.86-39.17c0,0,10.45-5.74,16.98-17.19c0,0,10.49,15.79,21.24,24.68
				c0,0,26.18,26.41,1.64,57.54c0,0-32.22,18.29-59.49-4.92c0,0-11.86-15.8-0.57-35.07c0,0,11.59,18.4,22.31,14.44L28.78,110.38z"/>
			<path class="st1" d="M13.95,156.33c-5.14-1.42-1.27-11.62-1.27-11.62s28.66,6.25,58.22-1.07c0,0,5.69,5.37,0.37,11.62
				L13.95,156.33z"/>
		</g>
		<polygon class="st2" points="2.37,321.98 2.37,213.42 46.79,213.42 46.77,321.98 		"/>
		<polygon class="st2" points="162.14,257.96 53.59,257.96 53.59,213.53 162.14,213.55 		"/>
		<g>
			<path class="st2" d="M77.27,166.88c31.38,0,56.81-28.03,56.81-62.58c0-34.54-25.44-62.56-56.81-62.56L77.14,1.98
				c51.34,0,92.98,45.81,92.98,102.32c0,56.52-41.63,102.34-92.98,102.34L77.27,166.88z"/>
			<g>
				<rect x="2.37" y="1.98" class="st2" width="75.18" height="39.82"/>
				<rect x="2.37" y="166.88" class="st2" width="75.18" height="39.79"/>
			</g>
		</g>
	</g>
	<g>
		<polygon class="st2" points="916.51,47.84 880.19,215.47 864.85,145.89 887.73,47.84 856.19,47.84 849.77,77.44 843.25,47.84 
			810.95,47.84 834.18,149.41 819.87,215.47 782.93,47.84 750.63,47.84 802.38,274.15 834.94,274.15 848.96,214.05 862.7,274.15 
			895.26,274.15 948.05,47.84 		"/>
		<g>
			<path class="st2" d="M493.8,274.15h-32l-12.72-51.18h-59.39l-12.08,51.18h-31.88l56.71-226.31h32.27L493.8,274.15z
				 M439.52,184.47l-20.89-84.04l-19.84,84.04H439.52z"/>
		</g>
		<g>
			<path class="st2" d="M1065.38,274.15h-32l-12.72-51.18h-59.38l-12.08,51.18h-31.88l56.71-226.31h32.27L1065.38,274.15z
				 M1011.1,184.47l-20.89-84.04l-19.84,84.04H1011.1z"/>
		</g>
		<g>
			<path class="st2" d="M515.49,274.15V86.34h-43.41v-38.5h116.53v38.5H545.2v187.81H515.49z"/>
		</g>
		<g>
			<path class="st2" d="M610.65,274.15V47.84h29.7v89.21h58.49V47.84h29.7v226.31h-29.7v-98.6h-58.49v98.6H610.65z"/>
		</g>
		<g>
			<path class="st2" d="M1087.64,274.15v-95.25l-54.15-131.07h35.16l34.43,90.24l34.12-90.24h34.3l-54.15,131.37v94.94H1087.64z"/>
		</g>
		<path class="st2" d="M228.41,86.35c0,0-2.42,0.3-2.42-2.2V49.37c0,0,0.48-1.53,2.42-1.53h52.36c0,0,33.92-0.08,41.37,4.01
			c0,0,19.35,6.38,28.08,34.5c0,0,12.59,40.67-5.69,75.19c0,0-12.23,22.74-33.98,25.28c0,0-18.32,2.65-50.91,1.89v85.45h-33.65
			V156.6c0,0,0.41-6.4,5.33-6.4h49.45c0,0,21.69,0.59,28.15-5.93c0,0,10.76-6.84,10.76-27.81c0,0,0.23-12.94-8.08-22.01
			c0,0-4.85-6.75-16.45-7.43c0,0-10.11-0.66-15.67-0.66L228.41,86.35z"/>
	</g>
</g>
</svg>
